<svg xmlns="http://www.w3.org/2000/svg" viewBox="0 0 1067.86 185.48"><defs><style>.cls-1{fill:#0fb6a3;}</style></defs><g id="Layer_2" data-name="Layer 2"><g id="Layer_1-2" data-name="Layer 1"><path class="cls-1" d="M379.07,89.41c10.52,0,17.47-3.66,23.78-9.42A3.41,3.41,0,0,0,404,77.43,3.6,3.6,0,0,0,400.56,74a3.31,3.31,0,0,0-2.29,1c-5.48,5-11.06,7.77-19,7.77-14.08,0-24.77-11.61-24.77-26.42v-.18c0-14.72,10.6-26.25,24.77-26.25,7.87,0,13.45,2.93,18.38,7.32A4.36,4.36,0,0,0,400,38a3.72,3.72,0,0,0,3.66-3.56,4,4,0,0,0-1.46-2.93,33.11,33.11,0,0,0-22.86-8.32c-18.84,0-32.37,15-32.37,33.1v.18C347,74.87,360.6,89.41,379.07,89.41Z"/><path class="cls-1" d="M491.2,23.85a3.64,3.64,0,0,0-3.56,3.65V85.11a3.61,3.61,0,1,0,7.22,0V27.5A3.66,3.66,0,0,0,491.2,23.85Z"/><path class="cls-1" d="M573.6,23.85A4.25,4.25,0,0,0,570,26.41L547.81,79.63l-22.13-53a4,4,0,0,0-3.75-2.74,3.72,3.72,0,0,0-3.66,3.56,3.42,3.42,0,0,0,.37,1.65l24.69,57a4.32,4.32,0,0,0,4.2,3h.37a4.38,4.38,0,0,0,4.2-3l24.79-57.24a3.78,3.78,0,0,0,.27-1.45A3.55,3.55,0,0,0,573.6,23.85Z"/><path class="cls-1" d="M674.48,85.11a3.66,3.66,0,1,0,7.31,0V31h18.56a3.36,3.36,0,0,0,3.39-3.29,3.44,3.44,0,0,0-3.39-3.38H655.91a3.43,3.43,0,0,0-3.38,3.38A3.36,3.36,0,0,0,655.91,31h18.57Z"/><path class="cls-1" d="M316.06,140.21c5-2.19,10.15-6.49,10.15-14.81v-.18A14.21,14.21,0,0,0,322.09,115c-3.65-3.57-9.42-5.67-16.73-5.67H281.67a3.65,3.65,0,0,0-3.56,3.66v56.68a3.66,3.66,0,0,0,3.56,3.66h24.88c14,0,23.22-6.49,23.22-17.46v-.18C329.77,146.89,323.65,142.5,316.06,140.21Zm6.4,15.18c0,7.13-6,11.43-15.73,11.43H285.24v-51h19.48c9.14,0,14.17,4.11,14.17,10.42v.19c0,7.49-6,11.42-14.72,11.42H295a3.16,3.16,0,0,0-3.09,2.64,3.47,3.47,0,0,0-.11.56,3.38,3.38,0,0,0,.11.57,3.16,3.16,0,0,0,3.09,2.64h10.45c11.16,0,17,4,17,11Z"/><path class="cls-1" d="M377.7,108.21c-19.48,0-32.74,15.45-32.74,33.1v.18c0,17.65,13.08,32.92,32.56,32.92s32.73-15.45,32.73-33.1v-.18C410.25,123.48,397.18,108.21,377.7,108.21Zm25.05,33.28c0,14.54-10.42,26.24-25.05,26.24s-25.24-11.88-25.24-26.42v-.18c0-14.54,10.43-26.25,25.06-26.25s25.23,11.89,25.23,26.43Z"/><path class="cls-1" d="M451.42,109.31H432.76l-.11,0-.11,0a3.33,3.33,0,0,0-3.33,3.33.5.5,0,0,0,0,.13,3.32,3.32,0,0,0,3.3,3.21h18.88c16.18,0,26.51,11.16,26.51,25.33v.18c0,14.18-10.33,25.15-26.51,25.15h-15V126a3.65,3.65,0,0,0-3.61-3.61,3.64,3.64,0,0,0-1.37.28A3.6,3.6,0,0,0,429.2,126v43.67a3.65,3.65,0,0,0,3.56,3.66h18.66c20.11,0,34-14,34-32v-.18C485.43,123.11,471.53,109.31,451.42,109.31Z"/><path class="cls-1" d="M550.27,108.85c-1.55,0-2.46.91-3.38,2.19l-21.3,30.45L504.46,111c-.91-1.28-1.92-2.19-3.47-2.19a3.73,3.73,0,0,0-3.75,3.56,4.57,4.57,0,0,0,.83,2.47l23.77,33.29v21.94a3.66,3.66,0,1,0,7.31,0V148l23.68-32.92a5.44,5.44,0,0,0,1-2.65A3.56,3.56,0,0,0,550.27,108.85Z"/><path class="cls-1" d="M707.52,108.85a3.67,3.67,0,0,0-3.66,3.65v25.24H675.77a3.51,3.51,0,0,0-3.38,3.39,3.31,3.31,0,0,0,.43,1.56,3.35,3.35,0,0,0,2.95,1.82h28.09v25.6a3.62,3.62,0,1,0,7.23,0V112.5A3.65,3.65,0,0,0,707.52,108.85Z"/><path class="cls-1" d="M663.26,108.85a3.64,3.64,0,0,0-3.56,3.65v57.61a3.61,3.61,0,1,0,7.22,0V112.5A3.67,3.67,0,0,0,663.26,108.85Z"/><path class="cls-1" d="M830.81,109.31h-24a3.64,3.64,0,0,0-3.56,3.66v57.14a3.61,3.61,0,1,0,7.22,0V116h19.75c10.33,0,16.37,4.75,16.37,12.62v.18c0,8.23-6.86,13.17-16.46,13.17h-10.6a3.25,3.25,0,0,0,0,6.49h9.32l18,23.41a4.21,4.21,0,0,0,3.39,1.92,3.77,3.77,0,0,0,3.65-3.56,3.94,3.94,0,0,0-1.19-2.66l-15.9-20.48c10-1.92,17.09-8,17.09-18.56v-.19A17.69,17.69,0,0,0,849,115.71C845,111.69,838.67,109.31,830.81,109.31Z"/><path class="cls-1" d="M976,109.31H955.65a3.64,3.64,0,0,0-3.56,3.66v57.14a3.61,3.61,0,1,0,7.22,0V116h16.18c10.33,0,17.19,4.75,17.19,13.9v.18c0,8.41-6.95,14.08-17.55,14.08h-6.76a3.25,3.25,0,0,0,0,6.49v.1h6.48c13.63,0,25.15-7.13,25.15-20.94v-.19C1000,117,990.49,109.31,976,109.31Z"/><path class="cls-1" d="M1064.3,108.85c-1.56,0-2.48.91-3.39,2.19l-21.3,30.45L1018.48,111c-.91-1.28-1.92-2.19-3.47-2.19a3.73,3.73,0,0,0-3.75,3.56,4.73,4.73,0,0,0,.82,2.47l23.77,33.29v21.94a3.66,3.66,0,0,0,7.32,0V148l23.68-32.92a5.44,5.44,0,0,0,1-2.65A3.56,3.56,0,0,0,1064.3,108.85Z"/><path class="cls-1" d="M309.57,26.77a4.62,4.62,0,0,0-4.49-3.2h-.36c-2.29,0-3.66,1.19-4.57,3.2l-26,56.79a4.11,4.11,0,0,0-.46,1.92A3.29,3.29,0,0,0,277,88.77a3.62,3.62,0,0,0,3.48-2.47l6.67-14.9H311a3.28,3.28,0,0,0,.16-6.55.76.76,0,0,0-.16,0H290l14.72-32.74,14.72,32.74,2.83,6.58L329,86.12a4,4,0,0,0,3.57,2.65A3.47,3.47,0,0,0,336,85.29a4.78,4.78,0,0,0-.46-1.82Z"/><path class="cls-1" d="M621,26.77a4.62,4.62,0,0,0-4.48-3.2h-.37c-2.28,0-3.66,1.19-4.57,3.2l-26,56.79a4.23,4.23,0,0,0-.46,1.92,3.29,3.29,0,0,0,3.29,3.29,3.62,3.62,0,0,0,3.48-2.47l6.67-14.9h23.87a3.44,3.44,0,0,0,3.3-3.29,3.28,3.28,0,0,0-3.13-3.26,1,1,0,0,0-.17,0h-21l14.72-32.74,14.72,32.74,2.84,6.58,6.67,14.72A4,4,0,0,0,644,88.77a3.47,3.47,0,0,0,3.47-3.48,5,5,0,0,0-.45-1.82Z"/><path class="cls-1" d="M439.16,31H465a3.35,3.35,0,0,0,3.38-3.29A3.43,3.43,0,0,0,465,24.31H420.6a3.43,3.43,0,0,0-3.38,3.38A3.35,3.35,0,0,0,420.6,31h18.56Z"/><path class="cls-1" d="M444.77,37.65a3.66,3.66,0,0,0-5.61,3,3,3,0,0,0,.07.32h-.07V85.11a3.66,3.66,0,0,0,7.32,0V41h-.07a3,3,0,0,0,.07-.32A3.6,3.6,0,0,0,444.77,37.65Z"/><path class="cls-1" d="M739.54,52.74a3.29,3.29,0,1,0,0,6.58h22A3.27,3.27,0,0,0,764.83,56a3.34,3.34,0,0,0-3.29-3.29Z"/><path class="cls-1" d="M769.4,85a3.27,3.27,0,0,0-3.29-3.29H729.53V30.89h36.13a3.29,3.29,0,1,0,0-6.58H725.88A3.65,3.65,0,0,0,722.31,28V84.65a3.66,3.66,0,0,0,3.57,3.66h40.23A3.27,3.27,0,0,0,769.4,85Z"/><path class="cls-1" d="M906.35,111.77a4.6,4.6,0,0,0-4.48-3.2h-.37c-2.28,0-3.65,1.19-4.57,3.2l-26,56.79a4.21,4.21,0,0,0-.45,1.92,3.27,3.27,0,0,0,3.29,3.29,3.6,3.6,0,0,0,3.47-2.47L884,156.4h23.87a3.26,3.26,0,0,0,2.52-1.25,3.21,3.21,0,0,0,.77-2,3.28,3.28,0,0,0-3.13-3.26c-.06,0-.1,0-.16,0h-21l14.72-32.74,14.73,32.74,2.83,6.58,6.68,14.72a4,4,0,0,0,3.56,2.65,3.47,3.47,0,0,0,3.48-3.47,5,5,0,0,0-.46-1.83Z"/><path class="cls-1" d="M751.92,137.74a3.3,3.3,0,0,0,0,6.59h22a3.28,3.28,0,0,0,3.29-3.3,3.34,3.34,0,0,0-3.29-3.29Z"/><path class="cls-1" d="M778.49,166.73H741.91V115.89H778a3.29,3.29,0,1,0,0-6.58H738.26a3.65,3.65,0,0,0-3.57,3.66v56.68a3.66,3.66,0,0,0,3.57,3.66h40.23a3.29,3.29,0,0,0,0-6.58Z"/><path class="cls-1" d="M635.91,109.08H591.47a3.43,3.43,0,0,0-3.38,3.38,3.35,3.35,0,0,0,3.38,3.29h44.44a3.36,3.36,0,0,0,3.39-3.29A3.44,3.44,0,0,0,635.91,109.08Z"/><path class="cls-1" d="M615.64,122.42a3.29,3.29,0,0,0-3.9,0,3.6,3.6,0,0,0-1.7,3c0,.12.05.21.06.33H610v44.12a3.66,3.66,0,1,0,7.31,0V125.76h-.06c0-.12.06-.21.06-.33A3.58,3.58,0,0,0,615.64,122.42Z"/><path class="cls-1" d="M203.5,54.42c-2.41-3.22-6.57-4.92-12.35-5C173.07,49,140.09,64.5,121.7,87.25a35.62,35.62,0,0,0-5,8.28c-3.5.29-7,.46-10.47.51l-3.4,0-3.39,0c-3.47-.05-7-.22-10.47-.51a36.32,36.32,0,0,0-5-8.28C65.57,64.5,32.6,49,14.52,49.39c-5.78.11-9.94,1.81-12.35,5a10.62,10.62,0,0,0-1.86,9,15.46,15.46,0,0,0,1.82,4.32,6.49,6.49,0,0,0,1.75,1.84,2.14,2.14,0,0,0,.63.28,1.54,1.54,0,0,0,1,0c.7-.28,1.32-1.89,2.06-3.38a6.54,6.54,0,0,0,.3-4.77,2.89,2.89,0,0,1,.52-2.64C9.17,58,11.2,57.3,14,57.16h0l.7,0h.45c.5,0,1,0,1.55.05l.3,0,1.4.12.22,0c.53.06,1.08.13,1.63.22h.09l1.86.33C38.07,61,62.76,73.33,78,92.11a28.91,28.91,0,0,1,1.72,2.41c-18-2.47-35.8-7.82-50.73-15.44-1.93-1-3.7-2-5.33-2.9h0c-1.88-1.07-4.49-1.39-5.54,1-.13.56-.27,1.12-.39,1.68a4.46,4.46,0,0,0,1.5,3.56C21.29,83.71,23.41,85,25.43,86c17,8.66,37.46,14.54,58,16.79,3,9.59,4,23.64,3.35,45-.43,14.94-4.32,24.76-11.27,28.42C70.15,179,62.84,178,55.9,173.52l-.07-.05a88.92,88.92,0,0,1-42.75-76.3,90,90,0,0,1,1.19-14.59v0l.2-1.09c0-.15,0-.29.08-.44l0-.2a1.77,1.77,0,0,1,0-.2c.07-.36.14-.73.22-1.09.25-1.25.52-2.5.83-3.73,0-.08,0-.15.05-.23.33-1.29.67-2.57,1-3.84h0v0s1-3.28,2.22-6.51h0s1.55-4.49-2-5.42S12.15,61.53,11,64.41c-.21.56-.4,1.13-.59,1.69h0l-.09.3c-.4,1.17-.76,2.34-1.1,3.51-.07.22-.13.44-.2.66-.25.87-.49,1.74-.71,2.62l-.06.22-.18.79c0,.14-.08.28-.11.41H8A97.15,97.15,0,0,0,51.71,180h0l.06,0h0a31.93,31.93,0,0,0,17,5.42A21.9,21.9,0,0,0,79.07,183c6.67-3.51,14.75-12.45,15.39-35.05.57-20.22-.22-34.23-2.82-44.5,2.58.16,5.14.26,7.7.3l3.49,0,3.5,0c2.55,0,5.12-.14,7.69-.3-2.59,10.27-3.39,24.28-2.81,44.5.64,22.6,8.72,31.54,15.39,35.05a21.86,21.86,0,0,0,10.27,2.45,31.88,31.88,0,0,0,17-5.42h0l.06,0h0a97.15,97.15,0,0,0,43.71-105.4h0c0-.13-.08-.27-.11-.41s-.12-.52-.19-.79l0-.22c-.23-.88-.47-1.75-.72-2.62-.06-.22-.13-.44-.19-.66-.35-1.17-.71-2.34-1.1-3.51,0-.1-.06-.2-.1-.3h0c-.2-.56-.39-1.13-.59-1.69-1.11-2.88-2.49-5.55-6-4.64s-2,5.42-2,5.42h0c1.19,3.23,2.22,6.51,2.22,6.51v0h0c.37,1.27.72,2.55,1,3.84l.06.23c.3,1.23.58,2.48.83,3.73.07.36.15.73.22,1.09,0,.07,0,.14,0,.2l0,.2.09.44.2,1.09,0,0a90,90,0,0,1,1.2,14.59,88.92,88.92,0,0,1-42.75,76.3l-.08.05c-6.93,4.47-14.24,5.46-19.56,2.66-6.94-3.66-10.84-13.48-11.26-28.42-.61-21.35.36-35.4,3.34-45,20.49-2.25,41-8.13,57.95-16.79,2-1,4.15-2.27,6.26-3.51a4.46,4.46,0,0,0,1.5-3.56c-.12-.56-.27-1.12-.4-1.68-1-2.44-3.65-2.12-5.54-1h0c-1.63.95-3.39,1.92-5.32,2.9C161.78,86.7,144,92.05,126,94.52a26.76,26.76,0,0,1,1.72-2.41C142.9,73.33,167.6,61,183.5,57.9l1.86-.33h.08c.56-.09,1.1-.16,1.63-.22l.22,0,1.41-.12.3,0c.53,0,1.05-.05,1.54-.05H191l.71,0h0c2.77.14,4.8.82,5.6,1.89a2.92,2.92,0,0,1,.52,2.64,6.48,6.48,0,0,0,.3,4.77c.73,1.49,1.36,3.1,2.06,3.38a1.54,1.54,0,0,0,1,0,2.14,2.14,0,0,0,.63-.28,6.35,6.35,0,0,0,1.74-1.84,15.8,15.8,0,0,0,1.83-4.32A10.65,10.65,0,0,0,203.5,54.42Z"/><path class="cls-1" d="M86.18,69.74a16.66,16.66,0,1,0,16.65-16.65A16.67,16.67,0,0,0,86.18,69.74Zm25.57,0a8.92,8.92,0,1,1-8.92-8.92A8.93,8.93,0,0,1,111.75,69.74Z"/><path class="cls-1" d="M23.92,47.72a6.37,6.37,0,0,0,5.88-2.55v0a89.35,89.35,0,0,1,72.7-37.46h.65a89.37,89.37,0,0,1,72.7,37.46v0a6.35,6.35,0,0,0,5.87,2.55c3.29-.51,3-2.9,2.16-4.49A97.14,97.14,0,0,0,103.16,0h-.65A97.13,97.13,0,0,0,21.77,43.23C20.94,44.82,20.64,47.21,23.92,47.72Z"/></g></g></svg>